<svg width="120" height="34" viewBox="0 0 120 34" fill="none" xmlns="http://www.w3.org/2000/svg">
<g id="Mobile App Store Badges 1" clip-path="url(#clip0_2297_332)">
<path id="Vector" d="M117.6 0H2.4C1.07452 0 0 1.01482 0 2.26667V31.7333C0 32.9852 1.07452 34 2.4 34H117.6C118.925 34 120 32.9852 120 31.7333V2.26667C120 1.01482 118.925 0 117.6 0Z" fill="#474747"/>
<path id="Vector_2" d="M55.052 14.3668C53.1377 14.3668 51.5775 15.7359 51.5775 17.6216C51.5775 19.4959 53.1377 20.8766 55.052 20.8766C56.9672 20.8766 58.5275 19.4959 58.5275 17.6216C58.5266 15.7359 56.9664 14.3668 55.052 14.3668ZM55.052 19.5954C54.0029 19.5954 53.0987 18.7819 53.0987 17.6224C53.0987 16.4507 54.0038 15.6495 55.052 15.6495C56.1012 15.6495 57.0055 16.4507 57.0055 17.6224C57.0055 18.7811 56.1012 19.5954 55.052 19.5954ZM47.4713 14.3668C45.557 14.3668 43.9967 15.7359 43.9967 17.6216C43.9967 19.4959 45.557 20.8766 47.4713 20.8766C49.3864 20.8766 50.9467 19.4959 50.9467 17.6216C50.9467 15.7359 49.3864 14.3668 47.4713 14.3668ZM47.4713 19.5954C46.4222 19.5954 45.5179 18.7819 45.5179 17.6224C45.5179 16.4507 46.423 15.6495 47.4713 15.6495C48.5204 15.6495 49.4247 16.4507 49.4247 17.6224C49.4255 18.7811 48.5204 19.5954 47.4713 19.5954ZM38.4548 15.3663V16.7469H41.9693C41.8643 17.5237 41.5892 18.0908 41.1692 18.485C40.6581 18.9655 39.858 19.4959 38.4548 19.4959C36.2915 19.4959 34.6001 17.8558 34.6001 15.8216C34.6001 13.7875 36.2915 12.1474 38.4548 12.1474C39.622 12.1474 40.4741 12.579 41.1033 13.1339L42.1394 12.1596C41.2604 11.3706 40.094 10.7667 38.4548 10.7667C35.4914 10.7667 33 13.0351 33 15.8216C33 18.6081 35.4914 20.8766 38.4548 20.8766C40.0541 20.8766 41.2612 20.3829 42.2045 19.4584C43.1747 18.5462 43.4767 17.2635 43.4767 16.228C43.4767 15.9081 43.4506 15.612 43.3977 15.3655L38.4548 15.3663ZM75.3312 16.4385C75.0432 15.7115 74.1642 14.3668 72.3678 14.3668C70.5846 14.3668 69.1026 15.6862 69.1026 17.6216C69.1026 19.4462 70.5714 20.8766 72.5382 20.8766C74.1246 20.8766 75.0426 19.9643 75.4236 19.4339L74.2434 18.6939C73.8504 19.2365 73.3122 19.5939 72.5382 19.5939C71.7648 19.5939 71.214 19.2609 70.86 18.6074L75.4884 16.8074L75.3312 16.4385ZM70.611 17.5237C70.5714 16.2655 71.6466 15.6249 72.4206 15.6249C73.0242 15.6249 73.5354 15.9089 73.7058 16.3152L70.611 17.5237ZM66.8478 20.6799H68.3682V11.1127H66.8478V20.6799ZM64.356 15.0946H64.3038C63.963 14.7119 63.3066 14.3668 62.4816 14.3668C60.75 14.3668 59.164 15.7971 59.164 17.6347C59.164 19.4592 60.75 20.8773 62.4816 20.8773C63.3078 20.8773 63.963 20.5321 64.3038 20.138H64.356V20.6064C64.356 21.8516 63.648 22.5174 62.5074 22.5174C61.5762 22.5174 60.9996 21.8891 60.7632 21.3587L59.4391 21.8768C59.8192 22.7393 60.8286 23.8001 62.5074 23.8001C64.2906 23.8001 65.799 22.8135 65.799 20.409V14.565H64.3566L64.356 15.0946ZM62.6124 19.5954C61.5636 19.5954 60.6852 18.7689 60.6852 17.6347C60.6852 16.4875 61.5636 15.6495 62.6124 15.6495C63.648 15.6495 64.461 16.4875 64.461 17.6347C64.461 18.7689 63.648 19.5954 62.6124 19.5954ZM82.4562 11.1127H78.8172V20.6799H80.3352V17.0553H82.4556C84.1386 17.0553 85.794 15.9096 85.794 14.0844C85.794 12.2591 84.1398 11.1127 82.4562 11.1127ZM82.4952 15.7237H80.3352V12.4443H82.4952C83.631 12.4443 84.2754 13.3282 84.2754 14.0844C84.2754 14.8252 83.631 15.7237 82.4952 15.7237ZM91.8816 14.3499C90.7818 14.3499 89.643 14.8053 89.172 15.8148L90.5196 16.3436C90.8082 15.8148 91.3452 15.6418 91.9074 15.6418C92.6928 15.6418 93.4914 16.0849 93.5046 16.8724V16.9712C93.2292 16.8234 92.64 16.6023 91.9206 16.6023C90.468 16.6023 88.9878 17.353 88.9878 18.7559C88.9878 20.0363 90.1794 20.8605 91.5144 20.8605C92.535 20.8605 93.0984 20.4296 93.4518 19.9245H93.5034V20.663H94.9704V16.9948C94.971 15.2974 93.6216 14.3499 91.8816 14.3499ZM91.6974 19.5931C91.2012 19.5931 90.507 19.3589 90.507 18.7804C90.507 18.0418 91.371 17.7587 92.1174 17.7587C92.784 17.7587 93.099 17.8941 93.5046 18.0785C93.3864 18.9655 92.5752 19.5931 91.6974 19.5931ZM100.311 14.5589L98.5704 18.7069H98.5182L96.711 14.5589H95.0754L97.785 20.3561L96.24 23.5812H97.824L102 14.5589H100.311ZM86.6328 20.6799H88.1508V11.1127H86.6328V20.6799Z" fill="#FBFBFB"/>
<g id="Group" filter="url(#filter0_dd_2297_332)">
<path id="Vector_3" d="M9.97294 7.66881C9.73852 7.90313 9.59998 8.26682 9.59998 8.73777V25.5643C9.59998 26.036 9.73852 26.399 9.97294 26.6333L10.0326 26.6881L20.013 17.2621V17.151V17.04L10.0326 7.61328L9.97294 7.66881Z" fill="url(#paint0_linear_2297_332)"/>
<path id="Vector_4" d="M23.3395 20.4051L20.0133 17.2621V17.151V17.0399L23.3404 13.8977L23.4153 13.9381L27.357 16.0531C28.4824 16.6573 28.4824 17.6455 27.357 18.2504L23.4153 20.3655L23.3395 20.4051Z" fill="url(#paint1_linear_2297_332)"/>
<g id="Group_2" filter="url(#filter1_d_2297_332)">
<path id="Vector_5" d="M23.4146 20.3651L20.0119 17.1514L9.97266 26.6336C10.3432 27.0049 10.9563 27.0505 11.6467 26.6808L23.4146 20.3651Z" fill="url(#paint2_linear_2297_332)"/>
</g>
<path id="Vector_6" d="M23.4146 13.9373L11.6467 7.62236C10.9563 7.25188 10.3432 7.29829 9.97266 7.66957L20.0127 17.1518L23.4146 13.9373Z" fill="url(#paint3_linear_2297_332)"/>
</g>
</g>
<defs>
<filter id="filter0_dd_2297_332" x="9.59998" y="7.2167" width="18.6011" height="19.8695" filterUnits="userSpaceOnUse" color-interpolation-filters="sRGB">
<feFlood flood-opacity="0" result="BackgroundImageFix"/>
<feColorMatrix in="SourceAlpha" type="matrix" values="0 0 0 0 0 0 0 0 0 0 0 0 0 0 0 0 0 0 127 0" result="hardAlpha"/>
<feOffset dy="-0.15"/>
<feComposite in2="hardAlpha" operator="out"/>
<feColorMatrix type="matrix" values="0 0 0 0 0 0 0 0 0 0 0 0 0 0 0 0 0 0 0.12 0"/>
<feBlend mode="normal" in2="BackgroundImageFix" result="effect1_dropShadow_2297_332"/>
<feColorMatrix in="SourceAlpha" type="matrix" values="0 0 0 0 0 0 0 0 0 0 0 0 0 0 0 0 0 0 127 0" result="hardAlpha"/>
<feOffset dy="0.15"/>
<feComposite in2="hardAlpha" operator="out"/>
<feColorMatrix type="matrix" values="0 0 0 0 1 0 0 0 0 1 0 0 0 0 1 0 0 0 0.25 0"/>
<feBlend mode="normal" in2="effect1_dropShadow_2297_332" result="effect2_dropShadow_2297_332"/>
<feBlend mode="normal" in="SourceGraphic" in2="effect2_dropShadow_2297_332" result="shape"/>
</filter>
<filter id="filter1_d_2297_332" x="9.97266" y="17.0014" width="13.442" height="9.93479" filterUnits="userSpaceOnUse" color-interpolation-filters="sRGB">
<feFlood flood-opacity="0" result="BackgroundImageFix"/>
<feColorMatrix in="SourceAlpha" type="matrix" values="0 0 0 0 0 0 0 0 0 0 0 0 0 0 0 0 0 0 127 0" result="hardAlpha"/>
<feOffset dy="-0.15"/>
<feComposite in2="hardAlpha" operator="out"/>
<feColorMatrix type="matrix" values="0 0 0 0 0 0 0 0 0 0 0 0 0 0 0 0 0 0 0.08 0"/>
<feBlend mode="normal" in2="BackgroundImageFix" result="effect1_dropShadow_2297_332"/>
<feBlend mode="normal" in="SourceGraphic" in2="effect1_dropShadow_2297_332" result="shape"/>
</filter>
<linearGradient id="paint0_linear_2297_332" x1="19.1283" y1="8.55973" x2="6.38085" y2="22.057" gradientUnits="userSpaceOnUse">
<stop stop-color="#00A0FF"/>
<stop offset="0.0066" stop-color="#00A1FF"/>
<stop offset="0.2601" stop-color="#00BEFF"/>
<stop offset="0.5122" stop-color="#00D2FF"/>
<stop offset="0.7604" stop-color="#00DFFF"/>
<stop offset="1" stop-color="#00E3FF"/>
</linearGradient>
<linearGradient id="paint1_linear_2297_332" x1="28.822" y1="17.151" x2="9.33006" y2="17.151" gradientUnits="userSpaceOnUse">
<stop stop-color="#FFE000"/>
<stop offset="0.4087" stop-color="#FFBD00"/>
<stop offset="0.7754" stop-color="#FFA500"/>
<stop offset="1" stop-color="#FF9C00"/>
</linearGradient>
<linearGradient id="paint2_linear_2297_332" x1="21.5667" y1="18.8966" x2="4.2796" y2="37.2006" gradientUnits="userSpaceOnUse">
<stop stop-color="#FF3A44"/>
<stop offset="1" stop-color="#C31162"/>
</linearGradient>
<linearGradient id="paint3_linear_2297_332" x1="7.44426" y1="2.06816" x2="15.1634" y2="10.2414" gradientUnits="userSpaceOnUse">
<stop stop-color="#32A071"/>
<stop offset="0.0685" stop-color="#2DA771"/>
<stop offset="0.4762" stop-color="#15CF74"/>
<stop offset="0.8009" stop-color="#06E775"/>
<stop offset="1" stop-color="#00F076"/>
</linearGradient>
<clipPath id="clip0_2297_332">
<rect width="120" height="34" fill="white"/>
</clipPath>
</defs>
</svg>
