<svg width="308" height="90" viewBox="0 0 308 90" xmlns="http://www.w3.org/2000/svg">
  <!-- Optional: Define global styles for the fill property -->
  <style>
    
    path {
      fill: #47434383;
    }
  </style>

  <!-- Individual path definitions, where fill is explicitly defined for each path -->
  <path d="M103.127 13.5871H204.883V66.1213C204.883 66.7944 204.751 67.4609 204.493 68.0828C204.236 68.7047 203.858 69.2698 203.382 69.7458C202.906 70.2218 202.341 70.5993 201.719 70.8569C201.097 71.1145 200.431 71.2471 199.758 71.2471H108.253C107.579 71.2471 106.913 71.1145 106.291 70.8569C105.669 70.5993 105.104 70.2218 104.628 69.7458C104.152 69.2698 103.774 68.7047 103.517 68.0828C103.259 67.4609 103.127 66.7944 103.127 66.1213V13.5871Z" fill="#858585"/>
  <path d="M103.127 13.5871H175.134L166.277 2.24999C165.303 1.00616 162.894 0 160.89 0H96.1311C94.1347 0 93.2949 1.00616 94.2694 2.24999L103.127 13.5871Z" fill="#858585"/>
  <path opacity="0.2" d="M103.127 13.5871H175.134L166.277 2.24999C165.303 1.00616 162.894 0 160.89 0H96.1311C94.1347 0 93.2949 1.00616 94.2694 2.24999L103.127 13.5871Z" fill="#858585"/>
  <path d="M204.884 13.5871H132.884L141.741 6.19538C142.716 5.40313 145.124 4.72974 147.128 4.72974H211.879C213.884 4.72974 214.715 5.38729 213.741 6.19538L204.884 13.5871Z" fill="#858585"/>
  <path opacity="0.2" d="M132.884 13.5871H204.884V66.1213C204.884 66.7944 204.751 67.4609 204.493 68.0828C204.236 68.7047 203.858 69.2698 203.382 69.7458C202.906 70.2218 202.341 70.5993 201.719 70.8569C201.097 71.1145 200.431 71.2471 199.758 71.2471H138.01C137.337 71.2471 136.67 71.1145 136.048 70.8569C135.426 70.5993 134.861 70.2218 134.385 69.7458C133.909 69.2698 133.532 68.7047 133.274 68.0828C133.016 67.4609 132.884 66.7944 132.884 66.1213V13.5871Z" fill="white"/>
  <path opacity="0.5" d="M112.063 13.5871V49.6187L114.551 47.6539L116.302 49.6187L117.823 47.4321L119.384 49.6187L121.554 47.9787L123.947 49.6187V13.5871H112.063Z" fill="white"/>
  <path d="M154.006 89.1837C238.842 89.1837 307.615 85.1684 307.615 80.2154C307.615 75.2623 238.842 71.2471 154.006 71.2471C69.1696 71.2471 0.39624 75.2623 0.39624 80.2154C0.39624 85.1684 69.1696 89.1837 154.006 89.1837Z" fill="#F5F5F5"/>
</svg>
