<svg width="120" height="34" viewBox="0 0 120 34" fill="none" xmlns="http://www.w3.org/2000/svg">
<g id="Mobile App Store Badges (1) 1" clip-path="url(#clip0_2297_341)">
<path id="Vector" d="M115.8 0H4.2C1.8804 0 0 1.77594 0 3.96667V30.0333C0 32.2241 1.8804 34 4.2 34H115.8C118.12 34 120 32.2241 120 30.0333V3.96667C120 1.77594 118.12 0 115.8 0Z" fill="#474747"/>
<path id="Vector_2" d="M71.3016 13.5983V15.415H70.0962V16.6065H71.3016V20.6547C71.3016 22.0371 71.9634 22.59 73.6278 22.59C73.9206 22.59 74.199 22.557 74.4432 22.5175V21.3393C74.2338 21.3591 74.1018 21.3722 73.872 21.3722C73.1268 21.3722 72.7992 21.0431 72.7992 20.2927V16.6065H74.4432V15.415H72.7992V13.5983H71.3016Z" fill="#FBFBFB"/>
<path id="Vector_3" d="M78.684 22.6888C80.8992 22.6888 82.257 21.2867 82.257 18.963C82.257 16.6526 80.892 15.2439 78.684 15.2439C76.4688 15.2439 75.1038 16.6526 75.1038 18.963C75.1038 21.2867 76.4622 22.6888 78.684 22.6888ZM78.684 21.4315C77.3814 21.4315 76.65 20.5296 76.65 18.963C76.65 17.4096 77.3814 16.5012 78.684 16.5012C79.9794 16.5012 80.718 17.4096 80.718 18.963C80.718 20.5231 79.9794 21.4315 78.684 21.4315Z" fill="#FBFBFB"/>
<path id="Vector_4" d="M83.4192 22.5505H84.9168V18.3179C84.9168 17.3108 85.7178 16.6328 86.8536 16.6328C87.1182 16.6328 87.564 16.6789 87.6894 16.7184V15.3229C87.5292 15.2834 87.2436 15.2637 87.0204 15.2637C86.0316 15.2637 85.1886 15.7771 84.9726 16.4814H84.861V15.3822H83.4192V22.5505Z" fill="#FBFBFB"/>
<path id="Vector_5" d="M91.4076 16.4485C92.5152 16.4485 93.24 17.1792 93.2748 18.3048H89.4432C89.5272 17.1858 90.3 16.4485 91.4076 16.4485ZM93.2676 20.6153C92.9892 21.1747 92.3688 21.4841 91.4634 21.4841C90.2652 21.4841 89.4924 20.6876 89.4432 19.4304V19.3514H94.8V18.8577C94.8 16.6065 93.5256 15.2439 91.4148 15.2439C89.2764 15.2439 87.918 16.6986 87.918 18.9894C87.918 21.2801 89.2482 22.6888 91.4214 22.6888C93.156 22.6888 94.368 21.8988 94.7094 20.6153H93.2676Z" fill="#FBFBFB"/>
<path id="Vector_6" d="M61.4808 19.9033C61.596 21.6635 63.1482 22.7892 65.4588 22.7892C67.9278 22.7892 69.4728 21.6089 69.4728 19.7259C69.4728 18.2454 68.592 17.4267 66.4548 16.9559L65.307 16.6899C63.9498 16.3897 63.4008 15.9871 63.4008 15.2844C63.4008 14.3975 64.2528 13.8176 65.5308 13.8176C66.7434 13.8176 67.581 14.3838 67.7328 15.2912H69.3066C69.213 13.6333 67.668 12.4667 65.5524 12.4667C63.2784 12.4667 61.7622 13.6333 61.7622 15.3868C61.7622 16.8331 62.6214 17.6928 64.5054 18.109L65.8482 18.416C67.2276 18.723 67.8336 19.1733 67.8336 19.9238C67.8336 20.7971 66.8808 21.4316 65.5812 21.4316C64.188 21.4316 63.2202 20.838 63.0834 19.9033H61.4808Z" fill="#FBFBFB"/>
<path id="Vector_7" d="M45.967 15.2637C44.936 15.2637 44.0445 15.7508 43.5847 16.567H43.4733V15.3822H42.0314V24.9334H43.529V21.4644H43.6474C44.0445 22.2214 44.9012 22.669 45.9809 22.669C47.8964 22.669 49.1154 21.2406 49.1154 18.963C49.1154 16.6855 47.8964 15.2637 45.967 15.2637ZM45.5421 21.3986C44.2883 21.3986 43.5011 20.4639 43.5011 18.9696C43.5011 17.4688 44.2883 16.5341 45.5491 16.5341C46.8167 16.5341 47.576 17.4491 47.576 18.963C47.576 20.4836 46.8167 21.3986 45.5421 21.3986Z" fill="#FBFBFB"/>
<path id="Vector_8" d="M54.3557 15.2637C53.3248 15.2637 52.4332 15.7508 51.9735 16.567H51.8621V15.3822H50.4202V24.9334H51.9178V21.4644H52.0362C52.4332 22.2214 53.29 22.669 54.3697 22.669C56.2852 22.669 57.5042 21.2406 57.5042 18.963C57.5042 16.6855 56.2852 15.2637 54.3557 15.2637ZM53.9308 21.3986C52.6771 21.3986 51.8899 20.4639 51.8899 18.9696C51.8899 17.4688 52.6771 16.5341 53.9378 16.5341C55.2055 16.5341 55.9648 17.4491 55.9648 18.963C55.9648 20.4836 55.2055 21.3986 53.9308 21.3986Z" fill="#FBFBFB"/>
<path id="Vector_9" d="M39.3444 22.5504H41.0627L37.3013 12.7054H35.5614L31.8 22.5504H33.4605L34.4207 19.9374H38.3915L39.3444 22.5504ZM36.3483 14.4929H36.471L37.98 18.6548H34.8322L36.3483 14.4929Z" fill="#FBFBFB"/>
<path id="Vector_10" d="M24.1329 17.6487C24.1542 16.0739 25.0408 14.5838 26.4474 13.759C25.56 12.5502 24.0738 11.7838 22.5275 11.7376C20.8782 11.5725 19.2794 12.679 18.439 12.679C17.5823 12.679 16.2884 11.754 14.895 11.7814C13.0788 11.8374 11.3856 12.8223 10.502 14.3369C8.60253 17.4737 10.0193 22.0838 11.8388 24.6194C12.7492 25.8611 13.8131 27.248 15.2052 27.1988C16.5675 27.1448 17.0763 26.3701 18.7207 26.3701C20.3498 26.3701 20.8271 27.1988 22.2475 27.1675C23.7093 27.1448 24.6303 25.9204 25.5087 24.667C26.1627 23.7823 26.6661 22.8045 27 21.7699C25.2821 21.0769 24.1349 19.4278 24.1329 17.6487Z" fill="#FBFBFB"/>
<path id="Vector_11" d="M21.4501 10.0701C22.2471 9.15744 22.6398 7.98438 22.5447 6.80005C21.327 6.92205 20.2022 7.47716 19.3944 8.35481C18.6045 9.21229 18.1935 10.3647 18.2712 11.5038C19.4893 11.5157 20.6868 10.9757 21.4501 10.0701Z" fill="#FBFBFB"/>
</g>
<defs>
<clipPath id="clip0_2297_341">
<rect width="120" height="34" fill="white"/>
</clipPath>
</defs>
</svg>
