<svg width="86" height="80" viewBox="0 0 86 80" fill="none" xmlns="http://www.w3.org/2000/svg">
<g id="Frame 81">
<rect width="86" height="80" fill="#0A0A0A"/>
<g id="Vector">
<path d="M4.09524 0H0V3.80952H4.09524V0Z" fill="white"/>
<path d="M8.19048 0H4.09524V3.80952H8.19048V0Z" fill="white"/>
<path d="M12.2857 0H8.19048V3.80952H12.2857V0Z" fill="white"/>
<path d="M16.381 0H12.2857V3.80952H16.381V0Z" fill="white"/>
<path d="M20.4762 0H16.381V3.80952H20.4762V0Z" fill="white"/>
<path d="M24.5714 0H20.4762V3.80952H24.5714V0Z" fill="white"/>
<path d="M28.6667 0H24.5714V3.80952H28.6667V0Z" fill="white"/>
<path d="M36.8571 0H32.7619V3.80952H36.8571V0Z" fill="white"/>
<path d="M40.9524 0H36.8571V3.80952H40.9524V0Z" fill="white"/>
<path d="M45.0476 0H40.9524V3.80952H45.0476V0Z" fill="white"/>
<path d="M53.2381 0H49.1429V3.80952H53.2381V0Z" fill="white"/>
<path d="M61.4286 0H57.3333V3.80952H61.4286V0Z" fill="white"/>
<path d="M65.5238 0H61.4286V3.80952H65.5238V0Z" fill="white"/>
<path d="M69.619 0H65.5238V3.80952H69.619V0Z" fill="white"/>
<path d="M73.7143 0H69.619V3.80952H73.7143V0Z" fill="white"/>
<path d="M77.8095 0H73.7143V3.80952H77.8095V0Z" fill="white"/>
<path d="M81.9048 0H77.8095V3.80952H81.9048V0Z" fill="white"/>
<path d="M86 0H81.9048V3.80952H86V0Z" fill="white"/>
<path d="M4.09524 3.80952H0V7.61905H4.09524V3.80952Z" fill="white"/>
<path d="M28.6667 3.80952H24.5714V7.61905H28.6667V3.80952Z" fill="white"/>
<path d="M45.0476 3.80952H40.9524L40.9524 7.61905H45.0476V3.80952Z" fill="white"/>
<path d="M53.2381 3.80952H49.1429V7.61905H53.2381V3.80952Z" fill="white"/>
<path d="M61.4286 3.80952H57.3333V7.61905H61.4286V3.80952Z" fill="white"/>
<path d="M86 3.80952H81.9048V7.61905H86V3.80952Z" fill="white"/>
<path d="M4.09524 7.61905H0V11.4286H4.09524V7.61905Z" fill="white"/>
<path d="M12.2857 7.61905H8.19048V11.4286H12.2857V7.61905Z" fill="white"/>
<path d="M16.381 7.61905H12.2857V11.4286H16.381V7.61905Z" fill="white"/>
<path d="M20.4762 7.61905H16.381V11.4286H20.4762V7.61905Z" fill="white"/>
<path d="M28.6667 7.61905H24.5714V11.4286H28.6667V7.61905Z" fill="white"/>
<path d="M36.8571 7.61905H32.7619V11.4286H36.8571V7.61905Z" fill="white"/>
<path d="M40.9524 7.61905H36.8571V11.4286H40.9524L40.9524 7.61905Z" fill="white"/>
<path d="M49.1429 7.61905H45.0476L45.0476 11.4286H49.1429V7.61905Z" fill="white"/>
<path d="M61.4286 7.61905H57.3333V11.4286H61.4286V7.61905Z" fill="white"/>
<path d="M69.619 7.61905H65.5238V11.4286H69.619V7.61905Z" fill="white"/>
<path d="M73.7143 7.61905H69.619V11.4286H73.7143V7.61905Z" fill="white"/>
<path d="M77.8095 7.61905H73.7143V11.4286H77.8095V7.61905Z" fill="white"/>
<path d="M86 7.61905H81.9048V11.4286H86V7.61905Z" fill="white"/>
<path d="M4.09524 11.4286H0V15.2381H4.09524V11.4286Z" fill="white"/>
<path d="M12.2857 11.4286H8.19048V15.2381H12.2857V11.4286Z" fill="white"/>
<path d="M16.381 11.4286H12.2857V15.2381H16.381V11.4286Z" fill="white"/>
<path d="M20.4762 11.4286H16.381V15.2381H20.4762V11.4286Z" fill="white"/>
<path d="M28.6667 11.4286H24.5714V15.2381H28.6667V11.4286Z" fill="white"/>
<path d="M36.8571 11.4286H32.7619V15.2381H36.8571V11.4286Z" fill="white"/>
<path d="M40.9524 11.4286H36.8571V15.2381H40.9524V11.4286Z" fill="white"/>
<path d="M49.1429 11.4286H45.0476V15.2381H49.1429V11.4286Z" fill="white"/>
<path d="M53.2381 11.4286H49.1429V15.2381H53.2381V11.4286Z" fill="white"/>
<path d="M61.4286 11.4286H57.3333V15.2381H61.4286V11.4286Z" fill="white"/>
<path d="M69.619 11.4286H65.5238V15.2381H69.619V11.4286Z" fill="white"/>
<path d="M73.7143 11.4286H69.619V15.2381H73.7143V11.4286Z" fill="white"/>
<path d="M77.8095 11.4286H73.7143V15.2381H77.8095V11.4286Z" fill="white"/>
<path d="M86 11.4286H81.9048V15.2381H86V11.4286Z" fill="white"/>
<path d="M4.09524 15.2381H0V19.0476H4.09524V15.2381Z" fill="white"/>
<path d="M12.2857 15.2381H8.19048V19.0476H12.2857V15.2381Z" fill="white"/>
<path d="M16.381 15.2381H12.2857V19.0476H16.381V15.2381Z" fill="white"/>
<path d="M20.4762 15.2381H16.381V19.0476H20.4762V15.2381Z" fill="white"/>
<path d="M28.6667 15.2381H24.5714V19.0476H28.6667V15.2381Z" fill="white"/>
<path d="M40.9524 15.2381H36.8571L36.8571 19.0476H40.9524V15.2381Z" fill="white"/>
<path d="M61.4286 15.2381H57.3333V19.0476H61.4286V15.2381Z" fill="white"/>
<path d="M69.619 15.2381H65.5238V19.0476H69.619V15.2381Z" fill="white"/>
<path d="M73.7143 15.2381H69.619V19.0476H73.7143V15.2381Z" fill="white"/>
<path d="M77.8095 15.2381H73.7143V19.0476H77.8095V15.2381Z" fill="white"/>
<path d="M86 15.2381H81.9048V19.0476H86V15.2381Z" fill="white"/>
<path d="M4.09524 19.0476H0V22.8571H4.09524V19.0476Z" fill="white"/>
<path d="M28.6667 19.0476H24.5714V22.8571H28.6667V19.0476Z" fill="white"/>
<path d="M36.8571 19.0476H32.7619V22.8571H36.8571L36.8571 19.0476Z" fill="white"/>
<path d="M40.9524 19.0476H36.8571L36.8571 22.8571H40.9524V19.0476Z" fill="white"/>
<path d="M61.4286 19.0476H57.3333V22.8571H61.4286V19.0476Z" fill="white"/>
<path d="M86 19.0476H81.9048V22.8571H86V19.0476Z" fill="white"/>
<path d="M4.09524 22.8571H0V26.6667H4.09524V22.8571Z" fill="white"/>
<path d="M8.19048 22.8571H4.09524V26.6667H8.19048V22.8571Z" fill="white"/>
<path d="M12.2857 22.8571H8.19048V26.6667H12.2857V22.8571Z" fill="white"/>
<path d="M16.381 22.8571H12.2857V26.6667H16.381V22.8571Z" fill="white"/>
<path d="M20.4762 22.8571H16.381V26.6667H20.4762V22.8571Z" fill="white"/>
<path d="M24.5714 22.8571H20.4762V26.6667H24.5714V22.8571Z" fill="white"/>
<path d="M28.6667 22.8571H24.5714V26.6667H28.6667V22.8571Z" fill="white"/>
<path d="M36.8571 22.8571H32.7619V26.6667H36.8571V22.8571Z" fill="white"/>
<path d="M45.0476 22.8571H40.9524L40.9524 26.6667H45.0476V22.8571Z" fill="white"/>
<path d="M53.2381 22.8571H49.1429V26.6667H53.2381V22.8571Z" fill="white"/>
<path d="M61.4286 22.8571H57.3333V26.6667H61.4286V22.8571Z" fill="white"/>
<path d="M65.5238 22.8571H61.4286V26.6667H65.5238V22.8571Z" fill="white"/>
<path d="M69.619 22.8571H65.5238V26.6667H69.619V22.8571Z" fill="white"/>
<path d="M73.7143 22.8571H69.619V26.6667H73.7143V22.8571Z" fill="white"/>
<path d="M77.8095 22.8571H73.7143V26.6667H77.8095V22.8571Z" fill="white"/>
<path d="M81.9048 22.8571H77.8095V26.6667H81.9048V22.8571Z" fill="white"/>
<path d="M86 22.8571H81.9048V26.6667H86V22.8571Z" fill="white"/>
<path d="M36.8571 26.6667H32.7619V30.4762H36.8571V26.6667Z" fill="white"/>
<path d="M40.9524 26.6667H36.8571V30.4762H40.9524L40.9524 26.6667Z" fill="white"/>
<path d="M45.0476 26.6667H40.9524L40.9524 30.4762H45.0476V26.6667Z" fill="white"/>
<path d="M4.09524 30.4762H0V34.2857H4.09524V30.4762Z" fill="white"/>
<path d="M8.19048 30.4762H4.09524V34.2857H8.19048V30.4762Z" fill="white"/>
<path d="M16.381 30.4762H12.2857V34.2857H16.381V30.4762Z" fill="white"/>
<path d="M28.6667 30.4762H24.5714V34.2857H28.6667V30.4762Z" fill="white"/>
<path d="M32.7619 30.4762L28.6667 30.4762V34.2857H32.7619L32.7619 30.4762Z" fill="white"/>
<path d="M40.9524 30.4762H36.8571L36.8571 34.2857H40.9524V30.4762Z" fill="white"/>
<path d="M45.0476 30.4762H40.9524V34.2857H45.0476V30.4762Z" fill="white"/>
<path d="M49.1429 30.4762L45.0476 30.4762V34.2857H49.1429V30.4762Z" fill="white"/>
<path d="M53.2381 30.4762H49.1429V34.2857H53.2381V30.4762Z" fill="white"/>
<path d="M57.3333 30.4762H53.2381V34.2857H57.3333V30.4762Z" fill="white"/>
<path d="M61.4286 30.4762H57.3333V34.2857H61.4286V30.4762Z" fill="white"/>
<path d="M65.5238 30.4762H61.4286V34.2857H65.5238V30.4762Z" fill="white"/>
<path d="M73.7143 30.4762H69.619V34.2857H73.7143V30.4762Z" fill="white"/>
<path d="M77.8095 30.4762H73.7143V34.2857H77.8095V30.4762Z" fill="white"/>
<path d="M86 30.4762H81.9048V34.2857H86V30.4762Z" fill="white"/>
<path d="M4.09524 34.2857H0V38.0952H4.09524V34.2857Z" fill="white"/>
<path d="M8.19048 34.2857H4.09524V38.0952H8.19048V34.2857Z" fill="white"/>
<path d="M16.381 34.2857H12.2857V38.0952H16.381V34.2857Z" fill="white"/>
<path d="M24.5714 34.2857L20.4762 34.2857V38.0952H24.5714V34.2857Z" fill="white"/>
<path d="M36.8571 34.2857H32.7619L32.7619 38.0952H36.8571L36.8571 34.2857Z" fill="white"/>
<path d="M81.9048 34.2857H77.8095V38.0952H81.9048V34.2857Z" fill="white"/>
<path d="M12.2857 38.0952H8.19048V41.9048H12.2857V38.0952Z" fill="white"/>
<path d="M20.4762 38.0952H16.381V41.9048H20.4762V38.0952Z" fill="white"/>
<path d="M24.5714 38.0952H20.4762V41.9048H24.5714V38.0952Z" fill="white"/>
<path d="M28.6667 38.0952L24.5714 38.0952V41.9048H28.6667V38.0952Z" fill="white"/>
<path d="M40.9524 38.0952L36.8571 38.0952L36.8571 41.9048H40.9524V38.0952Z" fill="white"/>
<path d="M45.0476 38.0952H40.9524V41.9048H45.0476V38.0952Z" fill="white"/>
<path d="M49.1429 38.0952H45.0476V41.9048H49.1429V38.0952Z" fill="white"/>
<path d="M53.2381 38.0952H49.1429V41.9048H53.2381V38.0952Z" fill="white"/>
<path d="M73.7143 38.0952H69.619V41.9048H73.7143V38.0952Z" fill="white"/>
<path d="M77.8095 38.0952L73.7143 38.0952V41.9048H77.8095V38.0952Z" fill="white"/>
<path d="M8.19048 41.9048H4.09524V45.7143H8.19048V41.9048Z" fill="white"/>
<path d="M20.4762 41.9048H16.381V45.7143H20.4762V41.9048Z" fill="white"/>
<path d="M24.5714 41.9048H20.4762V45.7143H24.5714V41.9048Z" fill="white"/>
<path d="M32.7619 41.9048H28.6667V45.7143H32.7619V41.9048Z" fill="white"/>
<path d="M36.8571 41.9048H32.7619V45.7143H36.8571L36.8571 41.9048Z" fill="white"/>
<path d="M40.9524 41.9048H36.8571L36.8571 45.7143H40.9524V41.9048Z" fill="white"/>
<path d="M45.0476 41.9048H40.9524V45.7143H45.0476V41.9048Z" fill="white"/>
<path d="M49.1429 41.9048H45.0476V45.7143H49.1429V41.9048Z" fill="white"/>
<path d="M57.3333 41.9048H53.2381V45.7143H57.3333V41.9048Z" fill="white"/>
<path d="M61.4286 41.9048H57.3333V45.7143H61.4286V41.9048Z" fill="white"/>
<path d="M73.7143 41.9048H69.619V45.7143H73.7143V41.9048Z" fill="white"/>
<path d="M4.09524 45.7143H0V49.5238H4.09524V45.7143Z" fill="white"/>
<path d="M8.19048 45.7143H4.09524V49.5238H8.19048V45.7143Z" fill="white"/>
<path d="M12.2857 45.7143H8.19048V49.5238H12.2857V45.7143Z" fill="white"/>
<path d="M16.381 45.7143H12.2857V49.5238H16.381V45.7143Z" fill="white"/>
<path d="M24.5714 45.7143H20.4762V49.5238H24.5714V45.7143Z" fill="white"/>
<path d="M28.6667 45.7143H24.5714V49.5238H28.6667V45.7143Z" fill="white"/>
<path d="M32.7619 45.7143H28.6667V49.5238H32.7619V45.7143Z" fill="white"/>
<path d="M36.8571 45.7143H32.7619V49.5238H36.8571V45.7143Z" fill="white"/>
<path d="M40.9524 45.7143H36.8571V49.5238H40.9524V45.7143Z" fill="white"/>
<path d="M53.2381 45.7143H49.1429V49.5238H53.2381V45.7143Z" fill="white"/>
<path d="M61.4286 45.7143H57.3333V49.5238H61.4286V45.7143Z" fill="white"/>
<path d="M69.619 45.7143H65.5238V49.5238H69.619V45.7143Z" fill="white"/>
<path d="M77.8095 45.7143H73.7143V49.5238H77.8095V45.7143Z" fill="white"/>
<path d="M40.9524 49.5238H36.8571L36.8571 53.3333H40.9524V49.5238Z" fill="white"/>
<path d="M69.619 49.5238H65.5238V53.3333H69.619V49.5238Z" fill="white"/>
<path d="M81.9048 49.5238H77.8095V53.3333H81.9048V49.5238Z" fill="white"/>
<path d="M86 49.5238H81.9048V53.3333H86V49.5238Z" fill="white"/>
<path d="M4.09524 53.3333H0V57.1429H4.09524V53.3333Z" fill="white"/>
<path d="M8.19048 53.3333H4.09524V57.1429H8.19048V53.3333Z" fill="white"/>
<path d="M12.2857 53.3333H8.19048V57.1429H12.2857V53.3333Z" fill="white"/>
<path d="M16.381 53.3333H12.2857V57.1429H16.381V53.3333Z" fill="white"/>
<path d="M20.4762 53.3333H16.381V57.1429H20.4762V53.3333Z" fill="white"/>
<path d="M24.5714 53.3333H20.4762V57.1429H24.5714V53.3333Z" fill="white"/>
<path d="M28.6667 53.3333H24.5714V57.1429H28.6667V53.3333Z" fill="white"/>
<path d="M36.8571 53.3333H32.7619V57.1429H36.8571L36.8571 53.3333Z" fill="white"/>
<path d="M40.9524 53.3333H36.8571L36.8571 57.1429H40.9524V53.3333Z" fill="white"/>
<path d="M49.1429 53.3333H45.0476V57.1429H49.1429V53.3333Z" fill="white"/>
<path d="M57.3333 53.3333H53.2381V57.1429H57.3333V53.3333Z" fill="white"/>
<path d="M69.619 53.3333H65.5238V57.1429H69.619V53.3333Z" fill="white"/>
<path d="M73.7143 53.3333H69.619V57.1429H73.7143V53.3333Z" fill="white"/>
<path d="M77.8095 53.3333H73.7143V57.1429H77.8095V53.3333Z" fill="white"/>
<path d="M4.09524 57.1429H0V60.9524H4.09524V57.1429Z" fill="white"/>
<path d="M28.6667 57.1429H24.5714V60.9524H28.6667V57.1429Z" fill="white"/>
<path d="M40.9524 57.1429H36.8571L36.8571 60.9524H40.9524V57.1429Z" fill="white"/>
<path d="M49.1429 57.1429H45.0476V60.9524H49.1429V57.1429Z" fill="white"/>
<path d="M53.2381 57.1429H49.1429V60.9524H53.2381V57.1429Z" fill="white"/>
<path d="M57.3333 57.1429H53.2381V60.9524H57.3333V57.1429Z" fill="white"/>
<path d="M61.4286 57.1429H57.3333V60.9524H61.4286V57.1429Z" fill="white"/>
<path d="M81.9048 57.1429H77.8095V60.9524H81.9048V57.1429Z" fill="white"/>
<path d="M4.09524 60.9524H0V64.7619H4.09524V60.9524Z" fill="white"/>
<path d="M12.2857 60.9524H8.19048V64.7619H12.2857V60.9524Z" fill="white"/>
<path d="M16.381 60.9524H12.2857V64.7619H16.381V60.9524Z" fill="white"/>
<path d="M20.4762 60.9524H16.381V64.7619H20.4762V60.9524Z" fill="white"/>
<path d="M28.6667 60.9524H24.5714V64.7619H28.6667V60.9524Z" fill="white"/>
<path d="M49.1429 60.9524H45.0476V64.7619H49.1429V60.9524Z" fill="white"/>
<path d="M53.2381 60.9524H49.1429V64.7619H53.2381V60.9524Z" fill="white"/>
<path d="M57.3333 60.9524H53.2381V64.7619H57.3333V60.9524Z" fill="white"/>
<path d="M61.4286 60.9524H57.3333V64.7619H61.4286V60.9524Z" fill="white"/>
<path d="M65.5238 60.9524H61.4286V64.7619H65.5238V60.9524Z" fill="white"/>
<path d="M69.619 60.9524H65.5238V64.7619H69.619V60.9524Z" fill="white"/>
<path d="M81.9048 60.9524H77.8095V64.7619H81.9048V60.9524Z" fill="white"/>
<path d="M86 60.9524H81.9048V64.7619H86V60.9524Z" fill="white"/>
<path d="M4.09524 64.7619H0V68.5714H4.09524V64.7619Z" fill="white"/>
<path d="M12.2857 64.7619H8.19048V68.5714H12.2857V64.7619Z" fill="white"/>
<path d="M16.381 64.7619H12.2857V68.5714H16.381V64.7619Z" fill="white"/>
<path d="M20.4762 64.7619H16.381V68.5714H20.4762V64.7619Z" fill="white"/>
<path d="M28.6667 64.7619H24.5714V68.5714H28.6667V64.7619Z" fill="white"/>
<path d="M36.8571 64.7619H32.7619V68.5714H36.8571V64.7619Z" fill="white"/>
<path d="M40.9524 64.7619H36.8571V68.5714H40.9524V64.7619Z" fill="white"/>
<path d="M45.0476 64.7619H40.9524V68.5714H45.0476L45.0476 64.7619Z" fill="white"/>
<path d="M49.1429 64.7619H45.0476L45.0476 68.5714H49.1429V64.7619Z" fill="white"/>
<path d="M61.4286 64.7619H57.3333V68.5714H61.4286V64.7619Z" fill="white"/>
<path d="M65.5238 64.7619H61.4286V68.5714H65.5238V64.7619Z" fill="white"/>
<path d="M73.7143 64.7619H69.619V68.5714H73.7143V64.7619Z" fill="white"/>
<path d="M77.8095 64.7619H73.7143V68.5714H77.8095V64.7619Z" fill="white"/>
<path d="M86 64.7619H81.9048V68.5714H86V64.7619Z" fill="white"/>
<path d="M4.09524 68.5714H0V72.381H4.09524V68.5714Z" fill="white"/>
<path d="M12.2857 68.5714H8.19048V72.381H12.2857V68.5714Z" fill="white"/>
<path d="M16.381 68.5714H12.2857V72.381H16.381V68.5714Z" fill="white"/>
<path d="M20.4762 68.5714H16.381V72.381H20.4762V68.5714Z" fill="white"/>
<path d="M28.6667 68.5714H24.5714V72.381H28.6667V68.5714Z" fill="white"/>
<path d="M57.3333 68.5714H53.2381V72.381H57.3333V68.5714Z" fill="white"/>
<path d="M61.4286 68.5714H57.3333V72.381H61.4286V68.5714Z" fill="white"/>
<path d="M65.5238 68.5714H61.4286V72.381H65.5238V68.5714Z" fill="white"/>
<path d="M69.619 68.5714H65.5238V72.381H69.619V68.5714Z" fill="white"/>
<path d="M86 68.5714H81.9048V72.381H86V68.5714Z" fill="white"/>
<path d="M4.09524 72.381H0V76.1905H4.09524V72.381Z" fill="white"/>
<path d="M28.6667 72.381H24.5714V76.1905H28.6667V72.381Z" fill="white"/>
<path d="M36.8571 72.381H32.7619V76.1905H36.8571V72.381Z" fill="white"/>
<path d="M45.0476 72.381H40.9524V76.1905H45.0476V72.381Z" fill="white"/>
<path d="M53.2381 72.381H49.1429V76.1905H53.2381V72.381Z" fill="white"/>
<path d="M65.5238 72.381H61.4286V76.1905H65.5238V72.381Z" fill="white"/>
<path d="M69.619 72.381H65.5238V76.1905H69.619V72.381Z" fill="white"/>
<path d="M73.7143 72.381H69.619V76.1905H73.7143V72.381Z" fill="white"/>
<path d="M4.09524 76.1905H0V80H4.09524V76.1905Z" fill="white"/>
<path d="M8.19048 76.1905H4.09524V80H8.19048V76.1905Z" fill="white"/>
<path d="M12.2857 76.1905H8.19048V80H12.2857V76.1905Z" fill="white"/>
<path d="M16.381 76.1905H12.2857V80H16.381V76.1905Z" fill="white"/>
<path d="M20.4762 76.1905H16.381V80H20.4762V76.1905Z" fill="white"/>
<path d="M24.5714 76.1905H20.4762V80H24.5714V76.1905Z" fill="white"/>
<path d="M28.6667 76.1905H24.5714V80H28.6667V76.1905Z" fill="white"/>
<path d="M36.8571 76.1905H32.7619V80H36.8571V76.1905Z" fill="white"/>
<path d="M40.9524 76.1905H36.8571V80H40.9524L40.9524 76.1905Z" fill="white"/>
<path d="M45.0476 76.1905H40.9524L40.9524 80H45.0476V76.1905Z" fill="white"/>
<path d="M49.1429 76.1905H45.0476V80H49.1429V76.1905Z" fill="white"/>
<path d="M65.5238 76.1905H61.4286V80H65.5238V76.1905Z" fill="white"/>
<path d="M69.619 76.1905H65.5238V80H69.619V76.1905Z" fill="white"/>
<path d="M81.9048 76.1905H77.8095V80H81.9048V76.1905Z" fill="white"/>
</g>
</g>
</svg>
